#!OML:ASF F:\VICON\USERDATA\INSTALL\rory3\rory3.ASF
:FULLY-SPECIFIED
:DEGREES
888
root 3.36315 16.4931 0.614816 10.673 6.09742 6.1804
lowerback -6.29632 2.07621 -4.17046
upperback -0.379928 3.11416 -1.51768
thorax 2.99925 1.50414 1.03979
lowerneck 4.6935 7.12942 7.11705
upperneck 57.9694 10.7727 3.73684
head 26.0658 6.32761 2.87123
rclavicle 4.7758e-014 -4.37326e-015
rhumerus -47.2156 2.99715 -87.5859
rradius 60.0793
rwrist -48.4343
rhand -7.65118 -49.2555
rfingers 7.12502
rthumb 18.2444 -78.4199
lclavicle 4.7758e-014 -4.37326e-015
lhumerus -24.972 -5.23288 87.968
lradius 37.171
lwrist 70.8903
lhand -42.5262 -13.0008
lfingers 7.12502
lthumb -15.402 16.4055
rfemur -51.8195 15.4228 3.95467
rtibia 76.382
rfoot 7.32441 14.0138
rtoes -29.6163
lfemur -29.1115 -7.54744 -32.8211
ltibia 45.9381
lfoot -22.7909 13.2308
ltoes 9.02344
889
root 3.36287 16.4963 0.615228 10.6769 6.11768 6.18183
lowerback -5.3465 1.64081 -0.852525
upperback 0.840369 2.34248 -2.42774
thorax 3.93495 1.1744 -1.82571
lowerneck 1.35573 8.99053 3.33171
upperneck 57.788 13.2572 5.9097
head 25.9378 6.45329 5.41775
rclavicle -4.57205e-015 -2.22639e-014
rhumerus -43.6243 4.30952 -88.6162
rradius 59.4246
rwrist -48.3616
rhand -7.67849 -49.1107
rfingers 7.12502
rthumb 18.2182 -78.2775
lclavicle -4.57205e-015 -2.22639e-014
lhumerus -21.8591 -3.78642 86.5419
lradius 36.9338
lwrist 71.0914
lhand -42.6396 -12.8345
lfingers 7.12502
lthumb -15.5112 16.5633
rfemur -51.773 15.4626 3.91343
rtibia 76.3395
rfoot 7.19885 14.3478
rtoes -30.8509
lfemur -29.127 -7.55959 -32.8047
ltibia 45.9228
lfoot -22.8405 13.0709
ltoes 8.59322
890
root 3.36316 16.4998 0.61471 10.6739 6.15132 6.1321
lowerback -5.35969 1.66434 -0.756567
upperback 0.855474 2.36891 -2.4444
thorax 3.96345 1.18998 -1.89386
lowerneck 1.41201 8.93072 3.49181
upperneck 57.6884 13.1858 5.75419
head 25.8573 6.45736 5.26393
rclavicle 4.91992e-014 -1.19271e-014
rhumerus -43.5589 4.17049 -88.6127
rradius 59.3734
rwrist -48.2964
rhand -7.62066 -49.2101
rfingers 7.12502
rthumb 18.2738 -78.3718
lclavicle 4.91992e-014 -1.19271e-014
lhumerus -21.8142 -3.87844 86.5433
lradius 36.9826
lwrist 71.1804
lhand -42.7575 -12.6373
lfingers 7.12502
lthumb -15.6248 16.7517
rfemur -51.8084 15.4595 3.96426
rtibia 76.3014
rfoot 7.04602 14.9083
rtoes -33.4335
lfemur -29.1199 -7.53734 -32.7479
ltibia 45.8983
lfoot -22.8197 12.9916
ltoes 10.1133
891
root 3.36322 16.503 0.614941 10.64 6.16354 6.07864
lowerback -5.28554 1.35129 -0.93349
upperback 1.04219 1.95373 -2.15046
thorax 4.08606 0.97573 -1.52684
lowerneck 1.01271 9.23534 3.06576
upperneck 57.663 13.9075 5.4262
head 25.9627 6.57913 5.30181
rclavicle 5.91384e-015 2.62396e-014
rhumerus -43.0935 5.19378 -88.5707
rradius 59.4167
rwrist -48.3781
rhand -7.68244 -49.3841
rfingers 7.12502
rthumb 18.2144 -78.5513
lclavicle 5.91384e-015 2.62396e-014
lhumerus -21.5218 -2.70551 86.5425
lradius 37.0227
lwrist 70.9592
lhand -42.2492 -12.7874
lfingers 7.12502
lthumb -15.1352 16.6391
rfemur -51.7734 15.4743 4.04566
rtibia 76.2681
rfoot 6.9029 15.2733
rtoes -34.9782
lfemur -29.0573 -7.49731 -32.6957
ltibia 45.8586
lfoot -22.7771 12.9812
ltoes 8.6165
892
root 3.36228 16.5023 0.614871 10.6021 6.15277 6.09482
lowerback -5.31674 1.74616 -0.619874
upperback 0.907411 2.47118 -2.48484
thorax 4.00384 1.24476 -2.00385
lowerneck 1.37056 8.85764 3.83492
upperneck 57.646 13.1679 5.44764
head 25.9836 6.49358 5.03919
rclavicle 5.41688e-015 1.0138e-014
rhumerus -43.5635 3.86316 -88.5495
rradius 59.5446
rwrist -48.2355
rhand -7.55708 -49.8964
rfingers 7.12502
rthumb 18.335 -79.0523
lclavicle 5.41688e-015 1.0138e-014
lhumerus -21.7284 -4.05452 86.5986
lradius 36.9472
lwrist 70.9229
lhand -39.491 -12.5315
lfingers 7.12502
lthumb -12.4771 17.076
rfemur -51.7431 15.5479 4.0203
rtibia 76.2675
rfoot 6.99582 15.3003
rtoes -34.8919
lfemur -28.9503 -7.44011 -32.7349
ltibia 45.805
lfoot -22.7248 13.1325
ltoes 9.25564
893
root 3.3608 16.4952 0.614841 10.5784 6.11801 6.14476
lowerback -6.15054 2.52252 -3.19009
upperback -0.266745 3.6567 -2.08155
thorax 3.10746 1.78918 -0.0436262
lowerneck 4.35536 6.8669 7.73384
upperneck 57.7968 10.2008 3.84315
head 26.0669 6.25336 2.74283
rclavicle -5.11374e-014 1.05356e-014
rhumerus -47.0001 1.43943 -87.6727
rradius 60.0501
rwrist -48.1542
rhand -7.40064 -50.1313
rfingers 7.12502
rthumb 18.4855 -79.273
lclavicle -5.11374e-014 1.05356e-014
lhumerus -24.546 -6.6342 87.8532
lradius 36.9933
lwrist 70.8211
lhand -41.5648 -12.3669
lfingers 7.12502
lthumb -14.4759 17.1081
rfemur -51.7732 15.6237 3.95154
rtibia 76.3174
rfoot 7.03929 15.2977
rtoes -34.7477
lfemur -28.8832 -7.35852 -32.8232
ltibia 45.7781
lfoot -22.5911 13.3903
ltoes 7.31441
894
root 3.35789 16.4893 0.614113 10.5694 6.09008 6.169
lowerback -6.21355 2.96949 -3.15758
upperback -0.424787 4.25712 -2.36449
thorax 2.99137 2.09347 -0.303999
lowerneck 4.58586 6.33242 8.40414
upperneck 57.7199 9.16581 4.04702
head 25.9112 6.05479 2.54845
rclavicle -2.35808e-014 9.54166e-015
rhumerus -47.5672 -0.0126078 -87.4962
rradius 60.1281
rwrist -47.985
rhand -7.14911 -49.7962
rfingers 7.12502
rthumb 18.7274 -78.9147
lclavicle -2.35808e-014 9.54166e-015
lhumerus -24.8751 -8.17221 88.0649
lradius 37.097
lwrist 70.9966
lhand -41.5587 -12.3057
lfingers 7.12502
lthumb -14.47 17.1698
rfemur -51.8181 15.6586 3.93277
rtibia 76.3875
rfoot 6.80439 15.3218
rtoes -34.9883
lfemur -28.8878 -7.2945 -32.8606
ltibia 45.7847
lfoot -22.467 13.5076
ltoes 6.02317
895
root 3.35414 16.4897 0.613144 10.5695 6.11704 6.1376
lowerback -5.75373 3.16111 -1.40765
upperback -0.0227811 4.41882 -3.08925
thorax 3.33755 2.20431 -2.01867
lowerneck 3.43569 6.78505 7.3573
upperneck 57.4309 9.42498 5.1577
head 25.6401 5.97184 3.45789
rclavicle -2.24502e-014 2.78299e-015
rhumerus -46.4342 -0.814004 -87.9588
rradius 59.9558
rwrist -47.7212
rhand -7.52468 -49.5922
rfingers 7.12502
rthumb 18.3661 -78.7452
lclavicle -2.24502e-014 2.78299e-015
lhumerus -23.7333 -9.02693 87.4485
lradius 37.1799
lwrist 71.3079
lhand -42.0932 -12.4367
lfingers 7.12502
lthumb -14.9849 17.0012
rfemur -51.8305 15.6668 3.9896
rtibia 76.4226
rfoot 6.59614 15.3506
rtoes -35.3232
lfemur -28.9084 -7.3031 -32.7971
ltibia 45.7963
lfoot -22.5289 13.3281
ltoes 6.52801
896
root 3.35267 16.4918 0.61381 10.5753 6.13849 6.08478
lowerback -5.22812 3.29318 0.771463
upperback 0.54966 4.49668 -3.89044
thorax 3.87444 2.30324 -4.07153
lowerneck 1.88026 7.43031 5.80405
upperneck 57.1117 10.0037 6.46604
head 25.3671 5.91736 4.64023
rclavicle 3.42251e-014 -3.01159e-014
rhumerus -44.8211 -1.44649 -88.5591
rradius 59.7869
rwrist -47.7415
rhand -7.10224 -49.5642
rfingers 7.12502
rthumb 18.7725 -78.6784
lclavicle 3.42251e-014 -3.01159e-014
lhumerus -21.9985 -9.69153 86.6561
lradius 36.9446
lwrist 71.476
lhand -43.4138 -12.5777
lfingers 7.12502
lthumb -16.2569 16.7607
rfemur -51.8295 15.6731 4.06377
rtibia 76.4253
rfoot 6.57804 15.3919
rtoes -35.3866
lfemur -28.9175 -7.31704 -32.7171
ltibia 45.7964
lfoot -22.6712 13.1511
ltoes 7.20114
897
root 3.35337 16.4996 0.615497 10.5739 6.10907 6.06846
lowerback -5.35164 1.91557 -0.412367
upperback 1.02644 2.69368 -2.62914
thorax 4.17146 1.36305 -2.24694
lowerneck 1.19236 8.73821 3.73384
upperneck 57.2844 12.789 5.6869
head 25.5065 6.38302 5.06097
rclavicle -2.03754e-015 1.78906e-015
rhumerus -43.4255 3.33087 -88.6041
rradius 59.4663
rwrist -48.2985
rhand -7.53308 -49.267
rfingers 7.12502
rthumb 18.3581 -78.4207
lclavicle -2.03754e-015 1.78906e-015
lhumerus -21.3343 -4.60825 86.5935
lradius 36.6079
lwrist 70.637
lhand -43.4373 -12.6279
lfingers 7.12502
lthumb -16.2794 16.7087
rfemur -51.9314 15.7341 4.04779
rtibia 76.4364
rfoot 7.26113 15.1085
rtoes -33.6002
lfemur -28.9155 -7.29404 -32.6987
ltibia 45.7959
lfoot -22.7678 13.1364
ltoes 8.01341
898
root 3.35549 16.509 0.615416 10.5745 6.09638 6.08937
lowerback -5.37259 1.8475 -0.457805
upperback 1.09218 2.605 -2.55933
thorax 4.24266 1.31714 -2.15556
lowerneck 1.12026 8.79877 3.70788
upperneck 57.3185 12.978 5.52523
head 25.612 6.42353 5.0228
rclavicle -8.24956e-015 1.03368e-014
rhumerus -43.32 3.57069 -88.559
rradius 59.4949
rwrist -48.2854
rhand -7.53891 -49.445
rfingers 7.12502
rthumb 18.3525 -78.5993
lclavicle -8.24956e-015 1.03368e-014
lhumerus -21.2222 -4.25866 86.6289
lradius 36.4948
lwrist 70.316
lhand -41.9007 -12.9557
lfingers 7.12502
lthumb -14.7994 16.4959
rfemur -52.0332 15.7829 3.97786
rtibia 76.4339
rfoot 7.92372 14.7432
rtoes -31.9632
lfemur -28.9528 -7.3374 -32.7073
ltibia 45.8435
lfoot -22.8581 13.0341
ltoes 9.52479
899
root 3.35506 16.5007 0.613211 10.6191 6.06272 6.11898
lowerback -5.3923 1.87617 -0.45602
upperback 1.09019 2.6442 -2.57481
thorax 4.25404 1.33689 -2.16841
lowerneck 1.11986 8.76682 3.7187
upperneck 57.3299 12.9438 5.49444
head 25.6403 6.40953 5.00221
rclavicle 5.03422e-014 -4.29375e-014
rhumerus -43.3813 3.45863 -88.518
rradius 59.6433
rwrist -48.1738
rhand -7.88623 -49.4044
rfingers 7.12502
rthumb 18.0183 -78.5897
lclavicle 5.03422e-014 -4.29375e-014
lhumerus -21.3023 -4.3426 86.68
lradius 36.6075
lwrist 70.2542
lhand -41.18 -13.385
lfingers 7.12502
lthumb -14.1051 16.1163
rfemur -51.9923 15.7407 3.97454
rtibia 76.4191
rfoot 7.35258 14.7362
rtoes -32.956
lfemur -29.107 -7.40111 -32.7213
ltibia 45.9565
lfoot -22.8908 12.9887
ltoes 9.68377
900
root 3.35191 16.4872 0.611177 10.6747 5.98337 6.05948
lowerback -5.52419 1.9611 -0.371368
upperback 1.12386 2.7565 -2.60159
thorax 4.37327 1.39545 -2.22842
lowerneck 1.03901 8.72049 3.6829
upperneck 57.3317 12.8184 5.61028
head 25.6495 6.36308 5.06384
rclavicle -3.17559e-014 2.08724e-014
rhumerus -43.3221 3.35216 -88.5282
rradius 59.639
rwrist -48.2181
rhand -7.53045 -50.054
rfingers 7.12502
rthumb 18.3606 -79.2075
lclavicle -3.17559e-014 2.08724e-014
lhumerus -21.3054 -4.67259 86.6901
lradius 36.8136
lwrist 70.5056
lhand -41.5027 -12.9933
lfingers 7.12502
lthumb -14.416 16.4861
rfemur -51.9575 15.7887 4.03439
rtibia 76.4075
rfoot 6.91781 14.3516
rtoes -32.3407
lfemur -29.3011 -7.38037 -32.6486
ltibia 46.0891
lfoot -22.9043 13.0353
ltoes 9.14395
901
root 3.35005 16.4848 0.611831 10.6744 5.9111 6.02238
lowerback -5.69361 2.00334 -0.326723
upperback 1.21469 2.81596 -2.61177
thorax 4.56878 1.42686 -2.25126
lowerneck 0.972452 8.70466 3.66127
upperneck 57.3 12.7628 5.65594
head 25.6244 6.341 5.08443
rclavicle -2.41026e-014 -7.35503e-015
rhumerus -43.1832 3.40969 -88.5715
rradius 59.5677
rwrist -48.3534
rhand -8.26443 -48.9901
rfingers 7.12502
rthumb 17.6544 -78.2086
lclavicle -2.41026e-014 -7.35503e-015
lhumerus -21.1988 -4.81298 86.6635
lradius 36.9494
lwrist 70.8245
lhand -41.342 -12.4672
lfingers 7.12502
lthumb -14.2612 17.0231
rfemur -51.9354 15.8982 4.04008
rtibia 76.3992
rfoot 6.99011 13.9704
rtoes -30.995
lfemur -29.3591 -7.34258 -32.6073
ltibia 46.1827
lfoot -23.0332 12.9927
ltoes 9.46054
902
root 3.34908 16.4877 0.615547 10.6376 5.86458 6.07677
lowerback -5.76748 2.08438 -0.338013
upperback 1.24285 2.93056 -2.6801
thorax 4.64779 1.48475 -2.30159
lowerneck 1.0254 8.63514 3.7835
upperneck 57.2589 12.6287 5.64478
head 25.5817 6.32291 5.02289
rclavicle 3.08116e-015 -1.27222e-014
rhumerus -43.2706 3.20546 -88.5741
rradius 59.6469
rwrist -48.3459
rhand -7.71094 -49.6365
rfingers 7.12502
rthumb 18.187 -78.8062
lclavicle 3.08116e-015 -1.27222e-014
lhumerus -21.1742 -5.07539 86.6758
lradius 36.944
lwrist 70.9847
lhand -40.9416 -12.7369
lfingers 7.12502
lthumb -13.8753 16.7803
rfemur -51.9476 15.8584 4.06632
rtibia 76.4515
rfoot 6.31402 14.5719
rtoes -33.7628
lfemur -29.2982 -7.32 -32.6736
ltibia 46.2143
lfoot -23.1575 12.9902
ltoes 9.54146
